<?xml version="1.0" encoding="utf-8"?>
<!-- Generator: Adobe Illustrator 15.0.0, SVG Export Plug-In . SVG Version: 6.00 Build 0)  -->
<!DOCTYPE svg PUBLIC "-//W3C//DTD SVG 1.1//EN" "http://www.w3.org/Graphics/SVG/1.1/DTD/svg11.dtd">
<svg version="1.1" id="Layer_1" xmlns="http://www.w3.org/2000/svg" xmlns:xlink="http://www.w3.org/1999/xlink" x="0px" y="0px"
	 width="142.86px" height="163.27px" viewBox="0 0 142.86 163.27" enable-background="new 0 0 142.86 163.27" xml:space="preserve">
<g>
	<path d="M56.655,68.492c-4.653,0-8.327,4.082-8.327,9.061c0,4.98,3.755,9.061,8.327,9.061c4.653,0,8.326-4.08,8.326-9.061
		C65.062,72.574,61.307,68.492,56.655,68.492z M86.451,68.492c-4.654,0-8.328,4.082-8.328,9.061c0,4.98,3.756,9.061,8.328,9.061
		c4.652,0,8.326-4.08,8.326-9.061C94.777,72.574,91.104,68.492,86.451,68.492z"/>
	<path d="M126.123,0.002H16.736C7.511,0.002,0,7.512,0,16.818v110.367c0,9.308,7.51,16.816,16.735,16.816h92.571l-4.326-15.103
		l10.449,9.715l9.877,9.145l17.553,15.51V16.819C142.859,7.512,135.348,0.002,126.123,0.002z M94.613,106.613
		c0,0-2.938-3.511-5.389-6.611C99.92,96.982,104,90.287,104,90.287c-3.346,2.205-6.529,3.756-9.387,4.815
		c-4.082,1.716-8,2.857-11.836,3.511c-7.84,1.471-15.021,1.062-21.145-0.08c-4.653-0.898-8.653-2.205-12-3.512
		c-1.877-0.734-3.918-1.633-5.959-2.775c-0.245-0.162-0.49-0.244-0.735-0.407c-0.163-0.081-0.245-0.163-0.327-0.245
		c-1.469-0.816-2.286-1.389-2.286-1.389s3.918,6.531,14.286,9.634c-2.449,3.103-5.469,6.774-5.469,6.774
		c-18.041-0.57-24.898-12.408-24.898-12.408C24.245,67.92,36,46.614,36,46.614c11.755-8.816,22.939-8.571,22.939-8.571l0.816,0.979
		c-14.694,4.245-21.47,10.694-21.47,10.694s1.796-0.979,4.816-2.367c8.735-3.837,15.674-4.898,18.531-5.143
		c0.49-0.082,0.898-0.163,1.388-0.163c4.979-0.653,10.611-0.816,16.49-0.163c7.754,0.898,16.08,3.184,24.57,7.836
		c0,0-6.449-6.123-20.326-10.367l1.143-1.306c0,0,11.184-0.245,22.939,8.571c0,0,11.754,21.306,11.754,47.591
		C119.592,94.205,112.654,106.043,94.613,106.613z"/>
</g>
</svg>
