<?xml version="1.0" encoding="utf-8"?>
<!-- Generator: Adobe Illustrator 15.0.0, SVG Export Plug-In . SVG Version: 6.00 Build 0)  -->
<!DOCTYPE svg PUBLIC "-//W3C//DTD SVG 1.1//EN" "http://www.w3.org/Graphics/SVG/1.1/DTD/svg11.dtd">
<svg version="1.1" id="Layer_1" xmlns="http://www.w3.org/2000/svg" xmlns:xlink="http://www.w3.org/1999/xlink" x="0px" y="0px"
	 width="360.18px" height="97.41px" viewBox="0 0 360.18 97.41" enable-background="new 0 0 360.18 97.41" xml:space="preserve">
<g>
	<path d="M69.371,41.693H39.104c-0.78,0-1.414,0.634-1.414,1.415v14.798c0,0.779,0.634,1.416,1.414,1.416h11.809v18.385
		c0,0-2.651,0.904-9.98,0.904c-8.647,0-20.728-3.16-20.728-29.724c0-26.569,12.579-30.065,24.388-30.065
		c10.223,0,14.627,1.8,17.429,2.667c0.881,0.27,1.695-0.607,1.695-1.388l3.376-14.298c0-0.366-0.124-0.806-0.54-1.105
		c-1.139-0.812-8.081-4.697-25.62-4.697c-20.207,0-40.933,8.597-40.933,49.922c0,41.326,23.729,47.484,43.727,47.484
		c16.558,0,26.603-7.075,26.603-7.075c0.414-0.229,0.458-0.809,0.458-1.072V43.108C70.785,42.327,70.152,41.693,69.371,41.693z"/>
	<path d="M225.354,4.954c0-0.787-0.624-1.423-1.404-1.423h-17.042c-0.778,0-1.411,0.636-1.411,1.423
		c0,0.003,0.005,32.935,0.005,32.935h-26.565V4.954c0-0.787-0.626-1.423-1.406-1.423h-17.042c-0.775,0-1.407,0.636-1.407,1.423
		v89.177c0,0.787,0.632,1.428,1.407,1.428h17.042c0.779,0,1.406-0.641,1.406-1.428V55.986h26.565c0,0-0.047,38.143-0.047,38.145
		c0,0.787,0.632,1.428,1.411,1.428h17.083c0.779,0,1.403-0.641,1.405-1.428V4.954z"/>
	<g>
		<g>
			<path d="M101.53,16.656c0-6.137-4.92-11.095-10.989-11.095c-6.063,0-10.987,4.958-10.987,11.095
				c0,6.13,4.923,11.103,10.987,11.103C96.61,27.758,101.53,22.786,101.53,16.656z"/>
			<path d="M100.312,75.318c0-2.283,0-41.165,0-41.165c0-0.781-0.63-1.42-1.41-1.42H81.913c-0.779,0-1.478,0.804-1.478,1.585
				c0,0,0,49.535,0,58.977c0,1.731,1.08,2.248,2.479,2.248c0,0,7.251,0,15.306,0c1.68,0,2.091-0.825,2.091-2.276
				C100.312,90.107,100.312,77.725,100.312,75.318z"/>
		</g>
	</g>
	<path d="M290.122,32.869h-16.911c-0.776,0-1.407,0.639-1.407,1.426v43.727c0,0-4.297,3.144-10.395,3.144
		c-6.099,0-7.717-2.767-7.717-8.737c0-5.978,0-38.132,0-38.132c0-0.787-0.63-1.426-1.405-1.426h-17.164
		c-0.774,0-1.409,0.639-1.409,1.426c0,0,0,23.286,0,41.021c0,17.733,9.884,22.072,23.48,22.072c11.155,0,20.149-6.162,20.149-6.162
		s0.429,3.248,0.622,3.633s0.698,0.771,1.244,0.771l10.919-0.048c0.773,0,1.409-0.642,1.409-1.425l-0.007-59.863
		C291.533,33.508,290.901,32.869,290.122,32.869z"/>
	<path d="M336.344,30.865c-9.604,0-16.138,4.286-16.138,4.286V4.954c0-0.787-0.63-1.423-1.406-1.423h-17.091
		c-0.777,0-1.408,0.636-1.408,1.423v89.177c0,0.787,0.631,1.428,1.41,1.428c0.002,0,11.854,0,11.856,0
		c0.534,0,0.938-0.275,1.237-0.758c0.295-0.479,0.72-4.111,0.72-4.111s6.988,6.623,20.219,6.623c15.53,0,24.438-7.879,24.438-35.367
		C360.182,34.458,345.956,30.865,336.344,30.865z M329.674,81.109c-5.866-0.178-9.845-2.84-9.845-2.84v-28.24
		c0,0,3.925-2.406,8.74-2.836c6.091-0.545,11.958,1.294,11.958,15.823C340.528,78.334,337.88,81.357,329.674,81.109z"/>
	<path d="M149.292,32.727h-12.784c0,0-0.019-16.885-0.019-16.889c0-0.64-0.33-0.959-1.069-0.959H118
		c-0.677,0-1.041,0.298-1.041,0.949V33.28c0,0-8.731,2.107-9.321,2.278c-0.587,0.17-1.02,0.712-1.02,1.359v10.967
		c0,0.789,0.63,1.425,1.408,1.425h8.933c0,0,0,11.471,0,26.385c0,19.597,13.746,21.521,23.021,21.521
		c4.238,0,9.309-1.36,10.146-1.67c0.506-0.187,0.8-0.711,0.8-1.278l0.014-12.064c0-0.786-0.664-1.424-1.413-1.424
		c-0.744,0-2.65,0.304-4.612,0.304c-6.279,0-8.407-2.919-8.407-6.699c0-3.776-0.001-25.073-0.001-25.073h12.785
		c0.778,0,1.411-0.636,1.411-1.425V34.147C150.702,33.36,150.071,32.727,149.292,32.727z"/>
</g>
</svg>
