<?xml version="1.0" encoding="utf-8"?>
<!-- Generator: Adobe Illustrator 15.0.0, SVG Export Plug-In . SVG Version: 6.00 Build 0)  -->
<!DOCTYPE svg PUBLIC "-//W3C//DTD SVG 1.1//EN" "http://www.w3.org/Graphics/SVG/1.1/DTD/svg11.dtd">
<svg version="1.1" id="Layer_1" xmlns="http://www.w3.org/2000/svg" xmlns:xlink="http://www.w3.org/1999/xlink" x="0px" y="0px"
	 width="20px" height="10px" viewBox="0 0 20 10" enable-background="new 0 0 20 10" xml:space="preserve">
<path d="M15,0h-4v2h4c1.65,0,3,1.35,3,3c0,1.65-1.35,3-3,3h-4v2h4c2.76,0,5-2.24,5-5S17.76,0,15,0z M9,8H5C3.35,8,2,6.65,2,5
	c0-1.65,1.35-3,3-3h4V0H5C2.24,0,0,2.24,0,5s2.24,5,5,5h4V8z M6,4h8v2H6V4z"/>
</svg>
