<?xml version="1.0" encoding="utf-8"?>
<!-- Generator: Adobe Illustrator 15.0.0, SVG Export Plug-In . SVG Version: 6.00 Build 0)  -->
<!DOCTYPE svg PUBLIC "-//W3C//DTD SVG 1.1//EN" "http://www.w3.org/Graphics/SVG/1.1/DTD/svg11.dtd">
<svg version="1.1" id="Layer_1" xmlns="http://www.w3.org/2000/svg" xmlns:xlink="http://www.w3.org/1999/xlink" x="0px" y="0px"
	 width="261.729px" height="235.453px" viewBox="0 0 261.729 235.453" enable-background="new 0 0 261.729 235.453"
	 xml:space="preserve">
<path d="M34.123,1.457C22.706,8.235,0.214,34.075,0,40.852v11.217c0,14.218,13.291,26.715,25.358,26.715
	c14.489,0,26.562-12.008,26.562-26.261c0,14.253,11.659,26.261,26.149,26.261c14.491,0,25.776-12.008,25.776-26.261
	c0,14.253,12.396,26.261,26.887,26.261h0.263c14.491,0,26.889-12.008,26.889-26.261c0,14.253,11.285,26.261,25.774,26.261
	c14.49,0,26.149-12.008,26.149-26.261c0,14.253,12.074,26.261,26.562,26.261c12.067,0,25.358-12.495,25.358-26.715V40.852
	c-0.214-6.777-22.706-32.619-34.12-39.395C192.125,0.211,167.526-0.005,130.863,0C94.202,0.004,44.22,0.577,34.121,1.457H34.123z
	 M103.663,72.088c-1.386,2.415-3.102,4.625-5.099,6.565c-5.47,5.348-12.968,8.663-21.233,8.663
	c-7.954,0.008-15.593-3.104-21.277-8.667c-1.982-1.941-3.488-4.017-4.867-6.434l-0.007,0.004c-1.378,2.421-3.298,4.496-5.284,6.439
	c-5.687,5.559-13.325,8.668-21.277,8.662c-0.997,0-2.033-0.275-2.872-0.563c-1.165,12.13-1.656,23.723-1.83,32.175l-0.002,0.049
	c-0.021,4.291-0.043,7.821-0.064,12.725c0.225,25.451-2.521,82.489,11.222,96.504c21.295,4.965,60.479,7.227,99.791,7.24h0.007
	c39.311-0.014,78.495-2.275,99.79-7.24c13.742-14.016,10.998-71.055,11.222-96.505c-0.023-4.902-0.043-8.433-0.064-12.726
	l-0.003-0.048c-0.173-8.454-0.664-20.046-1.829-32.176c-0.839,0.288-1.874,0.563-2.871,0.563
	c-7.953,0.007-15.592-3.102-21.278-8.661c-1.986-1.943-3.906-4.017-5.285-6.439l-0.007-0.004c-1.38,2.417-2.885,4.494-4.867,6.434
	c-5.684,5.563-13.323,8.674-21.276,8.667c-8.265,0-15.763-3.317-21.233-8.665c-1.996-1.94-3.713-4.15-5.099-6.565
	c-1.37,2.413-3.07,4.622-5.051,6.565c-5.687,5.562-13.326,8.673-21.28,8.666c-0.288,0-0.576-0.013-0.864-0.021h-0.007
	c-0.288,0.009-0.576,0.021-0.867,0.021c-7.954,0.008-15.595-3.103-21.28-8.665c-1.98-1.943-3.682-4.153-5.052-6.565L103.663,72.088z
	 M81.811,100.344l-0.003,0.011h0.017c8.653,0.018,16.341,0,25.866,10.396c7.497-0.786,15.33-1.179,23.17-1.167h0.007
	c7.84-0.011,15.673,0.381,23.171,1.167c9.525-10.396,17.213-10.378,25.866-10.396h0.016l-0.003-0.011
	c4.089,0,20.444,0,31.841,32.007l12.24,43.909c9.071,32.665-2.904,33.464-17.842,33.493c-22.152-0.824-34.418-16.912-34.418-32.997
	c-12.263,2.009-26.567,3.015-40.872,3.015h-0.007c-14.306,0-28.611-1.006-40.872-3.015c0,16.085-12.267,32.173-34.418,32.997
	c-14.938-0.029-26.912-0.826-17.841-33.493l12.244-43.908c11.396-32.007,27.751-32.007,31.84-32.007L81.811,100.344z
	 M130.861,125.498v0.006c-0.021,0.021-23.32,21.42-27.509,29.029l15.258-0.611v13.307c0,0.623,6.122,0.369,12.251,0.085h0.007
	c6.127,0.284,12.25,0.538,12.25-0.085v-13.307l15.258,0.611c-4.189-7.609-27.509-29.029-27.509-29.029v-0.006l-0.004,0.002
	L130.861,125.498z"/>
</svg>
